# AST/ASF file generated using VICON BodyLanguage
# -----------------------------------------------
:version 1.10
:name VICON
:units
  mass 1.0
  length 0.45
  angle deg
:documentation
   .ast/.asf automatically generated from VICON data using
   VICON BodyBuilder and BodyLanguage model FoxedUp or BRILLIANT.MOD
:root
   order TX TY TZ RX RY RZ
   axis XYZ
   position 0 0 0  
   orientation 0 0 0 
:bonedata
  begin
     id 1 
     name lhipjoint
     direction 0.577973 -0.728611 0.367523 
     length 2.48544 
     axis 0 0 0  XYZ
  end
  begin
     id 2 
     name lfemur
     direction 0.34202 -0.939693 0  
     length 7.1921  
     axis 0 0 20  XYZ
    dof rx ry rz
    limits (-160.0 20.0)
           (-70.0 70.0)
           (-60.0 70.0)
  end
  begin
     id 3 
     name ltibia
     direction 0.34202 -0.939693 0   
     length 7.71059   
     axis 0 0 20   XYZ
    dof rx
    limits (-10.0 170.0)
  end
  begin
     id 4 
     name lfoot
     direction 0.089538 -0.246004 0.965124   
     length 2.19909   
     axis -90 7.62852e-016 20   XYZ
    dof rx rz
    limits (-45.0 90.0)
           (-70.0 20.0)
  end
  begin
     id 5 
     name ltoes
     direction 1.53544e-011 -4.21829e-011 1   
     length 1.10116   
     axis -90 7.62852e-016 20   XYZ
    dof rx
    limits (-90.0 20.0)
  end
  begin
     id 6 
     name rhipjoint
     direction -0.554414 -0.743062 0.374812   
     length 2.4371  
     axis 0 0 0  XYZ 
  end
  begin
     id 7 
     name rfemur
     direction -0.34202 -0.939693 0   
     length 7.47254   
     axis 0 0 -20   XYZ
    dof rx ry rz
    limits (-160.0 20.0)
           (-70.0 70.0)
           (-70.0 60.0)
  end
  begin
     id 8 
     name rtibia
     direction -0.34202 -0.939693 0   
     length 7.65855   
     axis 0 0 -20   XYZ
    dof rx
    limits (-10.0 170.0)
 end
 begin
     id 9 
     name rfoot
     direction -0.133779 -0.367555 0.92033   
     length 2.43006  
     axis -90 -7.62852e-016 -20   XYZ
    dof rx rz
    limits (-45.0 90.0)
           (-20.0 70.0)
  end
  begin
     id 10 
     name rtoes
     direction -1.53563e-011 -4.21889e-011 1   
     length 1.19625   
     axis -90 -7.62852e-016 -20   XYZ
    dof rx
    limits (-90.0 20.0)
  end
  begin
     id 11 
     name lowerback
     direction 0.0249066 0.998043 -0.0573585   
     length 2.08485   
     axis 0 0 0   XYZ
    dof rx ry rz
    limits (-20.0 45.0)
           (-30.0 30.0)
           (-30.0 30.0)
  end
  begin
     id 12 
     name upperback
     direction 0.0237884 0.999673 0.00943178   
     length 2.08515   
     axis 0 0 0   XYZ
    dof rx ry rz
    limits (-20.0 45.0)
           (-30.0 30.0)
           (-30.0 30.0)
  end
  begin
     id 13 
     name thorax
     direction 0.0106671 0.999301 0.0358174   
     length 2.09037   
     axis 0 0 0   XYZ
    dof rx ry rz
    limits (-20.0 45.0)
           (-30.0 30.0)
           (-30.0 30.0)
  end
  begin
     id 14 
     name lowerneck
     direction -0.0580016 0.987052 0.149546   
     length 1.84454   
     axis 0 0 0   XYZ
    dof rx ry rz
    limits (-20.0 45.0)
           (-30.0 30.0)
           (-30.0 30.0)
  end
  begin
     id 15 
     name upperneck
     direction 0.079456 0.981963 -0.171567   
     length 1.88141   
     axis 0 0 0   XYZ
    dof rx ry rz
    limits (-20.0 45.0)
           (-30.0 30.0)
           (-30.0 30.0)
  end
  begin
     id 16
     name head
     direction 0.0262167 0.9967 -0.0768276  
     length 1.89541  
     axis 0 0 0   XYZ
    dof rx ry rz
    limits (-20.0 45.0)
           (-30.0 30.0)
           (-30.0 30.0)
  end
  begin
     id 17 
     name lclavicle
     direction 0.946135 0.322134 -0.0325326  
     length 3.949  
     axis 0 0 0   XYZ
    dof ry rz
    limits (-20.0 10.0)
           (0.0 20.0)
  end
  begin
     id 18 
     name lhumerus
     direction 1 -4.48964e-011 1.94005e-028   
     length 5.10995   
     axis 180 -30 -90   XYZ
    dof rx ry rz
    limits (-60.0 90.0)
           (-90.0 90.0)
           (-90.0 90.0)
  end
  begin
     id 19
     name lradius
     direction 1 -4.48976e-011 2.87852e-027   
     length 3.21207   
     axis 180 -30 -90   XYZ
    dof rx
    limits (-10.0 170.0)
  end
  begin
     id 20
     name lwrist
     direction 1 -4.48963e-011 1.9975e-027   
     length 1.60604   
     axis 2.96054e-016 90 90   XYZ
    dof ry
    limits (-180.0 0.0)
 end
  begin
     id 21 
     name lhand
     direction 1 -4.48919e-011 4.00227e-027   
     length 0.63349   
     axis -2.5488e-015 90 90   XYZ
    dof rx rz
    limits (-90.0 90.0)
           (-45.0 45.0)
  end
  begin
     id 22 
     name lfingers
     direction 1 -4.49037e-011 7.9652e-027   
     length 0.510736   
     axis -5.0975e-015 90 90   XYZ
    dof rx
    limits (0.0 90.0)
  end
  begin
     id 23
     name lthumb
     direction 0.707107 -6.34922e-011 0.707107   
     length 0.733318   
     axis -90 45 -4.48553e-014   XYZ
    dof rx rz
    limits (-45.0 45.0)
           (-45.0 45.0)
  end
  begin
     id 24 
     name rclavicle
     direction -0.940085 0.328911 -0.0897654   
     length 3.93848  
     axis 0 0 0   XYZ 
    dof ry rz
    limits (-10.0 20.0)
           (-20.0 0.0)
  end
  begin
     id 25 
     name rhumerus
     direction -1 -4.48958e-011 3.02044e-027  
     length 5.25109   
     axis 180 30 90   XYZ
    dof rx ry rz
    limits (-90.0 60.0)
           (-90.0 90.0)
           (-90.0 90.0)
  end
  begin
     id 26 
     name rradius
     direction -1 -4.4897e-011 9.78352e-028   
     length 3.28364   
     axis 180 30 90   XYZ
    dof rx
    limits (-10.0 170.0)
  end
  begin
     id 27 
     name rwrist
     direction -1 -4.48943e-011 1.99918e-027   
     length 1.64182   
     axis 2.96054e-016 -90 -90   XYZ
    dof ry
    limits (-180.0 0.0)
  end
  begin
     id 28
     name rhand
     direction -1 -4.49024e-011 3.98478e-027   
     length 0.599745   
     axis -2.5488e-015 -90 -90   XYZ
    dof rx rz
    limits (-90.0 90.0)
           (-45.0 45.0)
  end
  begin
     id 29
     name rfingers
     direction -1 -4.48914e-011 8.00621e-027   
     length 0.48353   
     axis -5.0975e-015 -90 -90   XYZ
    dof rx
    limits (0.0 90.0)
  end
  begin
     id 30
     name rthumb
     direction -0.707107 -6.34992e-011 0.707107   
     length 0.694255   
     axis -90 -45 4.48553e-014   XYZ
    dof rx rz
    limits (-45.0 45.0)
           (-45.0 45.0)
  end
:hierarchy
  begin
    root lhipjoint rhipjoint lowerback
    lhipjoint lfemur
    lfemur ltibia
    ltibia lfoot
    lfoot ltoes
    rhipjoint rfemur
    rfemur rtibia
    rtibia rfoot
    rfoot rtoes
    lowerback upperback
    upperback thorax
    thorax lowerneck lclavicle rclavicle
    lowerneck upperneck
    upperneck head
    lclavicle lhumerus
    lhumerus lradius
    lradius lwrist
    lwrist lhand lthumb
    lhand lfingers
    rclavicle rhumerus
    rhumerus rradius
    rradius rwrist
    rwrist rhand rthumb
    rhand rfingers
  end

#!OML:ASF E:\CV Data\Top Level 1\Subject 1\Session 1\player.ASF
:FULLY-SPECIFIED
:DEGREES
101
root 8.65033 16.9666 -4.78031 71.7406 -86.3282 -70.0396
lowerback 2.3508 2.42104 4.41315
upperback -1.06093 3.38894 2.06761
thorax -2.2789 1.62487 -0.482975
lowerneck -14.9618 11.4363 -2.54967
upperneck 22.558 15.4877 4.02971
head 8.98001 7.40981 3.55357
rclavicle -2.54444e-014 -4.37326e-015
rhumerus -46.0497 38.0471 -105.731
rradius 87.7778
rwrist -12.3717
rhand -25.7695 14.3289
rfingers 7.12502
rthumb 0.768388 -15.6494
lclavicle -2.54444e-014 -4.37326e-015
lhumerus -44.9286 -33.5298 111.645
lradius 89.4775
lwrist 49.2508
lhand -18.1478 41.2327
lfingers 7.12502
lthumb 8.12766 71.0564
rfemur -18.6637 6.05127 25.6985
rtibia 43.895
rfoot -25.8651 -7.59019
rtoes 11.4664
lfemur -18.1118 0.6756 -12.6844
ltibia 41.0401
lfoot -19.0845 7.88858
ltoes -3.79354
102
root 8.65277 16.9653 -4.78522 71.2736 -86.3485 -69.589
lowerback 2.32684 2.38893 4.40104
upperback -1.05047 3.34382 2.05915
thorax -2.25656 1.60317 -0.481922
lowerneck -14.9559 11.4601 -2.55369
upperneck 22.5692 15.5174 4.04787
head 8.97959 7.42516 3.563
rclavicle 2.75068e-014 1.55052e-014
rhumerus -46.115 38.0245 -105.748
rradius 87.7798
rwrist -12.4111
rhand -25.7975 14.3098
rfingers 7.12502
rthumb 0.741298 -15.6687
lclavicle 2.75068e-014 1.55052e-014
lhumerus -44.9593 -33.5241 111.695
lradius 89.4918
lwrist 49.2672
lhand -18.3025 41.244
lfingers 7.12502
lthumb 7.97834 71.0735
rfemur -18.6806 6.02085 25.6895
rtibia 43.9367
rfoot -25.859 -7.5991
rtoes 11.4555
lfemur -18.1026 0.676678 -12.6985
ltibia 41.0311
lfoot -19.0608 7.88627
ltoes -3.99662
103
root 8.65524 16.9645 -4.79036 70.8039 -86.3627 -69.1384
lowerback 2.3073 2.36122 4.39662
upperback -1.04058 3.30508 2.0464
thorax -2.23636 1.58446 -0.489999
lowerneck -14.9587 11.4805 -2.52852
upperneck 22.5872 15.5388 4.05214
head 8.98722 7.43695 3.56431
rclavicle 4.37016e-015 -2.74323e-014
rhumerus -46.1666 37.983 -105.763
rradius 87.7803
rwrist -12.4186
rhand -25.8181 14.2895
rfingers 7.12502
rthumb 0.721401 -15.6891
lclavicle 4.37016e-015 -2.74323e-014
lhumerus -44.9874 -33.5524 111.724
lradius 89.508
lwrist 49.2538
lhand -18.4184 41.2646
lfingers 7.12502
lthumb 7.86649 71.0983
rfemur -18.6913 6.00211 25.6882
rtibia 43.9721
rfoot -25.8498 -7.62013
rtoes 11.4536
lfemur -18.0914 0.649291 -12.6968
ltibia 41.0286
lfoot -19.071 7.82449
ltoes -3.7873
104
root 8.65784 16.9638 -4.79525 70.2303 -86.3727 -68.5846
lowerback 2.29109 2.3333 4.40161
upperback -1.03116 3.26656 2.03028
thorax -2.21782 1.56568 -0.506929
lowerneck -14.9632 11.4967 -2.50587
upperneck 22.6068 15.5553 4.05551
head 8.99576 7.44601 3.56541
rclavicle -3.24889e-015 1.15295e-014
rhumerus -46.2039 37.9335 -105.777
rradius 87.7782
rwrist -12.4102
rhand -25.8433 14.2729
rfingers 7.12502
rthumb 0.697115 -15.7057
lclavicle -3.24889e-015 1.15295e-014
lhumerus -45.0083 -33.5957 111.739
lradius 89.5204
lwrist 49.1966
lhand -18.4875 41.2808
lfingers 7.12502
lthumb 7.7998 71.117
rfemur -18.7003 5.98201 25.6877
rtibia 44.0038
rfoot -25.838 -7.6488
rtoes 11.4414
lfemur -18.0838 0.601848 -12.6899
ltibia 41.0309
lfoot -19.098 7.72978
ltoes -3.3435
105
root 8.66046 16.9633 -4.79995 69.5981 -86.3835 -67.9732
lowerback 2.27635 2.30425 4.40976
upperback -1.0209 3.22666 2.01244
thorax -2.19906 1.54616 -0.527402
lowerneck -14.9415 11.5072 -2.54023
upperneck 22.5958 15.5702 4.08499
head 8.98166 7.45432 3.57855
rclavicle -4.74505e-014 -1.59028e-014
rhumerus -46.2282 37.8857 -105.789
rradius 87.7745
rwrist -12.3981
rhand -25.875 14.2558
rfingers 7.12502
rthumb 0.666515 -15.7229
lclavicle -4.74505e-014 -1.59028e-014
lhumerus -45.0171 -33.6336 111.741
lradius 89.5252
lwrist 49.0987
lhand -18.5116 41.284
lfingers 7.12502
lthumb 7.7766 71.121
rfemur -18.7066 5.96692 25.6831
rtibia 44.0332
rfoot -25.828 -7.67643
rtoes 11.4534
lfemur -18.0755 0.528991 -12.6833
ltibia 41.0356
lfoot -19.1369 7.62066
ltoes -2.72531
106
root 8.66316 16.9625 -4.80453 68.9156 -86.3979 -67.3145
lowerback 2.26678 2.28079 4.42528
upperback -1.0114 3.19476 1.98348
thorax -2.18268 1.53047 -0.563897
lowerneck -14.8767 11.5065 -2.64018
upperneck 22.5366 15.5731 4.15585
head 8.93402 7.45904 3.60633
rclavicle 1.45206e-014 1.23246e-014
rhumerus -46.2373 37.8149 -105.803
rradius 87.771
rwrist -12.3885
rhand -25.9119 14.2427
rfingers 7.12502
rthumb 0.630794 -15.7361
lclavicle 1.45206e-014 1.23246e-014
lhumerus -45.0302 -33.6802 111.745
lradius 89.521
lwrist 48.9666
lhand -18.5046 41.2677
lfingers 7.12502
lthumb 7.78333 71.1045
rfemur -18.7105 5.9533 25.6727
rtibia 44.065
rfoot -25.8206 -7.70376
rtoes 11.4655
lfemur -18.067 0.478058 -12.6882
ltibia 41.0402
lfoot -19.1579 7.5384
ltoes -2.30419
107
root 8.66607 16.9617 -4.80931 68.2223 -86.4116 -66.6446
lowerback 2.25778 2.25402 4.43728
upperback -1.00125 3.15837 1.95805
thorax -2.16658 1.51261 -0.594702
lowerneck -14.794 11.5055 -2.7832
upperneck 22.4568 15.5807 4.24421
head 8.87054 7.46559 3.6433
rclavicle 3.87599e-014 2.06736e-014
rhumerus -46.2394 37.7614 -105.818
rradius 87.7706
rwrist -12.39
rhand -25.9564 14.231
rfingers 7.12502
rthumb 0.587815 -15.7479
lclavicle 3.87599e-014 2.06736e-014
lhumerus -45.0309 -33.7052 111.743
lradius 89.5138
lwrist 48.8241
lhand -18.4757 41.2308
lfingers 7.12502
lthumb 7.81122 71.0665
rfemur -18.7159 5.94316 25.6628
rtibia 44.0995
rfoot -25.8172 -7.73216
rtoes 11.4854
lfemur -18.0588 0.424523 -12.6941
ltibia 41.0435
lfoot -19.1727 7.47342
ltoes -1.94786
108
root 8.66905 16.9604 -4.81501 67.6049 -86.4295 -66.0591
lowerback 2.25803 2.22924 4.4363
upperback -0.989108 3.12481 1.9335
thorax -2.15425 1.49632 -0.617883
lowerneck -14.7124 11.5036 -2.92644
upperneck 22.3814 15.5873 4.33182
head 8.80894 7.47135 3.68021
rclavicle 1.09922e-014 2.38542e-015
rhumerus -46.2334 37.7128 -105.835
rradius 87.7724
rwrist -12.3988
rhand -25.9969 14.2174
rfingers 7.12502
rthumb 0.548773 -15.7616
lclavicle 1.09922e-014 2.38542e-015
lhumerus -45.03 -33.7227 111.741
lradius 89.5093
lwrist 48.6962
lhand -18.4282 41.1854
lfingers 7.12502
lthumb 7.8571 71.0194
rfemur -18.7128 5.94477 25.6552
rtibia 44.1382
rfoot -25.8189 -7.76266
rtoes 11.5181
lfemur -18.0404 0.400186 -12.7038
ltibia 41.0448
lfoot -19.1743 7.43245
ltoes -1.79023
